<svg xmlns="http://www.w3.org/2000/svg" version="1.1" xmlns:xlink="http://www.w3.org/1999/xlink" xmlns:svgjs="http://svgjs.dev/svgjs" width="1000" height="128" viewBox="0 0 1000 128"><g transform="matrix(1,0,0,1,-0.6060606060606233,0.3094818701089679)"><svg viewBox="0 0 396 51" data-background-color="#ffffff" preserveAspectRatio="xMidYMid meet" height="128" width="1000" xmlns="http://www.w3.org/2000/svg" xmlns:xlink="http://www.w3.org/1999/xlink"><g id="tight-bounds" transform="matrix(1,0,0,1,0.2400000000000091,-0.12330918262154)"><svg viewBox="0 0 395.52 51.24661836524309" height="51.24661836524309" width="395.52"><g><svg viewBox="0 0 466.25054209290937 60.411012321053384" height="51.24661836524309" width="395.52"><g transform="matrix(1,0,0,1,0,8.349134119624601)"><svg viewBox="0 0 395.52 43.71274408180418" height="43.71274408180418" width="395.52"><g id="textblocktransform"><svg viewBox="0 0 395.52 43.71274408180418" height="43.71274408180418" width="395.52" id="textblock"><g><svg viewBox="0 0 395.52 43.71274408180418" height="43.71274408180418" width="395.52"><g transform="matrix(1,0,0,1,0,0)"><svg width="395.52" viewBox="5.349999904632568 -38.599998474121094 356.92999267578125 39.44999694824219" height="43.71274408180418" data-palette-color="#31c48d"><path d="M25.2-19.25Q32-17.05 32-10.25L32-10.25Q32-5.05 28.88-2.53 25.75 0 18.45 0L18.45 0 5.35 0 5.35-37.9 18.45-37.9Q25.1-37.9 27.8-35.4 30.5-32.9 30.5-27.75L30.5-27.75Q30.5-24.7 29.23-22.58 27.95-20.45 25.2-19.25L25.2-19.25ZM10.2-33.8L10.2-21.05 18.45-21.05Q25.5-21.05 25.55-27.4L25.55-27.4Q25.55-30.9 24-32.35 22.45-33.8 18.45-33.8L18.45-33.8 10.2-33.8ZM27.05-10.55Q27.05-13.9 24.88-15.43 22.7-16.95 18.45-16.95L18.45-16.95 10.2-16.95 10.2-4.1 18.45-4.1Q23.15-4.1 25.1-5.65 27.05-7.2 27.05-10.55L27.05-10.55ZM65.75 0L61.65-11.05 45.85-11.05 41.8 0 36.8 0 51.05-38.35 56.45-38.35 70.75 0 65.75 0ZM47.5-15.4L60-15.4 53.75-32.3 47.5-15.4ZM107.1 0L101.4 0 90.65-16 79.9 0 74.2 0 87.7-19.5 75.1-37.9 80.75-37.9 90.7-23.15 100.6-37.9 106.25-37.9 93.65-19.5 107.1 0ZM139.39 0L135.29-11.05 119.49-11.05 115.44 0 110.44 0 124.69-38.35 130.09-38.35 144.39 0 139.39 0ZM121.14-15.4L133.64-15.4 127.39-32.3 121.14-15.4ZM172.99 0L163.24-16.05 155.89-16.05 155.89 0 151.04 0 151.04-37.9 164.29-37.9Q176.69-37.9 176.69-26.9L176.69-26.9Q176.69-22.55 174.62-19.88 172.54-17.2 168.39-16.4L168.39-16.4 178.54 0 172.99 0ZM155.89-33.65L155.89-20.3 164.29-20.3Q171.69-20.3 171.74-26.9L171.74-26.9Q171.74-30.4 169.89-32.02 168.04-33.65 164.29-33.65L164.29-33.65 155.89-33.65ZM202.34 0.85Q196.24 0.85 192.09-1.6 187.94-4.05 185.86-8.5 183.79-12.95 183.79-18.9L183.79-18.9Q183.79-24.5 185.84-28.95 187.89-33.4 192.06-36 196.24-38.6 202.34-38.6L202.34-38.6Q204.99-38.6 207.06-38.18 209.14-37.75 211.54-36.75L211.54-36.75 211.54-32.3Q207.29-34.35 202.44-34.35L202.44-34.35Q198.24-34.35 195.14-32.38 192.04-30.4 190.39-26.88 188.74-23.35 188.79-18.9L188.79-18.9Q188.79-14.3 190.39-10.8 191.99-7.3 195.04-5.35 198.09-3.4 202.34-3.4L202.34-3.4Q204.99-3.4 207.56-4.15 210.14-4.9 212.99-6.3L212.99-6.3 214.54-2.2Q211.64-0.7 208.44 0.08 205.24 0.85 202.34 0.85L202.34 0.85ZM237.19 0.85Q231.34 0.85 227.26-1.73 223.19-4.3 221.14-8.78 219.09-13.25 219.09-18.9L219.09-18.9Q219.09-24.45 221.14-28.9 223.19-33.35 227.26-35.98 231.34-38.6 237.19-38.6L237.19-38.6Q242.99-38.6 247.04-35.98 251.09-33.35 253.16-28.88 255.24-24.4 255.24-18.9L255.24-18.9Q255.24-13.25 253.19-8.78 251.14-4.3 247.06-1.73 242.99 0.85 237.19 0.85L237.19 0.85ZM237.19-3.4Q241.29-3.4 244.24-5.45 247.19-7.5 248.71-11.05 250.24-14.6 250.24-19.05L250.24-19.05Q250.24-23.35 248.69-26.83 247.14-30.3 244.19-32.33 241.24-34.35 237.19-34.35L237.19-34.35Q232.99-34.35 230.04-32.3 227.09-30.25 225.59-26.75 224.09-23.25 224.09-18.9L224.09-18.9Q224.09-14.45 225.59-10.95 227.09-7.45 230.04-5.43 232.99-3.4 237.19-3.4L237.19-3.4ZM276.03-37.9Q285.38-37.9 290.16-33.08 294.93-28.25 294.93-18.9L294.93-18.9Q294.93-9.5 290.18-4.75 285.43 0 276.03 0L276.03 0 263.43 0 263.43-37.9 276.03-37.9ZM289.93-19.05Q289.93-26.55 286.43-30.1 282.93-33.65 276.03-33.65L276.03-33.65 268.28-33.65 268.28-4.25 276.03-4.25Q282.98-4.25 286.46-7.8 289.93-11.35 289.93-19.05L289.93-19.05ZM308.08-4.2L326.43-4.2 326.43 0 303.23 0 303.23-37.9 326.18-37.9 326.18-33.7 308.08-33.7 308.08-21.15 323.68-21.15 323.68-16.95 308.08-16.95 308.08-4.2ZM356.73 0L346.98-16.05 339.63-16.05 339.63 0 334.78 0 334.78-37.9 348.03-37.9Q360.43-37.9 360.43-26.9L360.43-26.9Q360.43-22.55 358.35-19.88 356.28-17.2 352.13-16.4L352.13-16.4 362.28 0 356.73 0ZM339.63-33.65L339.63-20.3 348.03-20.3Q355.43-20.3 355.48-26.9L355.48-26.9Q355.48-30.4 353.63-32.02 351.78-33.65 348.03-33.65L348.03-33.65 339.63-33.65Z" opacity="1" transform="matrix(1,0,0,1,0,0)" fill="#31c48d" class="wordmark-text-0" data-fill-palette-color="primary" id="text-0"></path></svg></g></svg></g></svg></g></svg></g><g transform="matrix(1,0,0,1,405.839529771856,0)"><svg viewBox="0 0 60.411012321053384 60.411012321053384" height="60.411012321053384" width="60.411012321053384"><g data-palette-color="#31c48d"><rect width="16.512343367754593" height="60.411012321053384" fill="#31c48d" stroke="transparent" data-fill-palette-color="accent" x="0" fill-opacity="1"></rect><rect width="16.512343367754593" height="60.411012321053384" fill="#31c48d" stroke="transparent" data-fill-palette-color="accent" x="20.137004107017795" fill-opacity="0.75"></rect><rect width="16.512343367754593" height="60.411012321053384" fill="#31c48d" stroke="transparent" data-fill-palette-color="accent" x="40.27400821403559" fill-opacity="0.5"></rect></g></svg></g></svg></g><defs></defs></svg><rect width="395.52" height="51.24661836524309" fill="none" stroke="none" visibility="hidden"></rect></g></svg></g></svg>