<svg xmlns="http://www.w3.org/2000/svg" version="1.1" xmlns:xlink="http://www.w3.org/1999/xlink" xmlns:svgjs="http://svgjs.dev/svgjs" width="1000" height="750" viewBox="0 0 1000 750"><rect width="1000" height="750" fill="#ffffff"></rect><g transform="matrix(0.5191111111111111,0,0,0.5191111111111111,240.4444444444445,83)"><svg viewBox="0 0 320 360" data-background-color="#ffffff" preserveAspectRatio="xMidYMid meet" height="1125" width="1000" xmlns="http://www.w3.org/2000/svg" xmlns:xlink="http://www.w3.org/1999/xlink"><g id="tight-bounds" transform="matrix(1,0,0,1,0,0)"><svg viewBox="0 0 320 360" height="360" width="320"><g><svg></svg></g><g><svg viewBox="0 0 320 360" height="360" width="320"><g><path xmlns="http://www.w3.org/2000/svg" d="M20.961 227.22l3.726 4.658-1.863-6.056c-0.466-2.795-3.726 0.466-1.863 1.398M25.153 224.425c1.397 2.329 2.795 4.658 2.795 6.987 0 3.261 2.795 4.658 5.123 5.589-3.261-3.726-5.124-13.974-7.918-12.576M204.017 26.929c7.918 0 15.371-0.932 23.756 0.931 20.495 5.124 37.729 15.371 49.374 29.811l32.606 52.169c1.397 13.042 4.192 27.482 3.726 43.319 3.261 0 2.795-4.658 6.521-5.59-3.726 9.316-5.59 20.961-6.521 34.469-2.329-7.453 0-18.632 0.466-24.687-3.261 5.124-5.124 1.397-5.124-0.932 0.466-3.726-1.397-3.261-2.795-4.658-5.124-4.658-8.384-9.782-12.11-17.7 2.329-6.055 2.795-14.905-4.658-19.563-2.329-1.397-5.124-3.726-6.521-7.453-1.863-5.124-5.124-11.179-4.193-19.097 0.466-2.329-6.987 5.124-11.179 1.863-18.166-12.576-36.332-27.016-58.224-39.127-11.645 0-20.029-4.192-24.221-9.316-3.726-4.658-0.932-10.713 4.658-11.179 3.261 0 6.987-0.932 9.782 0.932 0.466-1.863 2.329-4.192 4.657-4.192M157.904 16.215l0.932 0.466c4.658 0.932 6.987 7.453 12.11 5.124 0 3.261 0.466 6.521-0.466 8.85-1.397 3.726-5.59 3.726-8.85 3.726-31.208-1.863-49.374 11.179-68.471 22.358-5.124 3.261-10.713 5.59-14.906 9.782-20.029 18.632-41.921 35.866-47.045 70.335l-4.192 38.195c-0.466 4.192-5.124 8.384-4.192 13.508l3.26 22.824c-3.261-3.261-5.124 0.932-4.192 2.795 0.466 1.397 2.329 6.055 5.124 1.863 3.726 6.987 7.453 20.495 12.576 26.55 15.837 18.632 36.332 35.4 53.101 52.169 4.192-0.932 7.453-0.932 8.384-3.727 1.397 2.795-1.397 5.59-3.726 6.056 7.453 4.658 15.837 8.85 27.016 9.781 14.44 0.932 27.948 3.261 40.524 6.522 6.521-1.863 13.042-2.795 20.029-3.261 2.329 0 3.726-3.726 6.521-4.658l0.466-4.658c2.795 4.192 2.329-1.397 0.466-4.192 3.261 2.795 4.192 5.124 5.589 6.987 0-1.397 3.726-6.521 3.727-0.466l0.931-6.055c1.397-0.932 1.863 5.124 3.261 0.931 1.397-4.192 4.192-0.932 6.987-2.329-0.932 1.863-0.466 5.59 2.794 3.261l3.727-3.261c2.329 5.59 6.055 3.261 7.918 2.329 20.495-13.042 40.99-28.413 60.553-43.784l-0.466 6.055 2.329-7.453c2.329 2.329 4.192 0.466 5.124-0.931 2.795-4.658 6.521-9.316 12.577-13.508-7.453 20.029-16.303 35.866-27.482 48.908l-4.658 5.59c0 3.261-0.932 7.453-4.658 7.918-1.863 0.466-5.59-0.932-8.384 1.863-1.397 1.863 3.261 5.59-0.466 2.795-3.261-2.329-6.521 0-10.248 0.932-2.795 0.932 1.863 3.726 2.795 5.589 0.932 1.863 1.863 3.726 1.398 6.056l-5.124-5.59c-6.055 3.261-9.782 9.316-14.906 13.974-2.329 1.863-1.397 5.124-1.397 7.918-3.261 0-6.987-0.932-8.85 0.932-1.397 1.863-0.932 4.658-0.932 7.453-4.658-0.466-5.124-7.453-9.315-6.056-4.192 0.932-8.85 1.397-12.577 3.727 2.795 5.59-4.658 2.329-3.726 3.26-6.987-4.192-13.042-7.453-20.495-4.658-15.837-5.124-35.4-2.795-49.84-0.931 0-2.329 0.466-4.658-0.466-5.124-0.932 2.329-3.726 1.397-3.26 1.397-8.85-6.055-17.7-9.782-27.016-14.905-8.384 0.932-16.303-3.261-18.632-5.59-6.521-6.055-13.974-2.795-20.029-4.192-13.042-3.261-17.7-16.769-19.098-26.084-0.932-4.658-4.658-6.521-6.055-6.056-6.055-19.563-15.371-37.263-22.824-55.429-1.863-4.658-1.397-9.316-1.397-14.44 2.329 0.932 4.658 0.466 4.192-2.794-2.329-15.371-7.918-27.016-13.974-38.195 3.261-15.837 3.726-34.469 11.179-48.443 6.521-12.576 18.632-19.098 27.016-29.811 2.795-3.726 2.795-8.85 5.59-12.11 9.316-9.316 18.632-19.098 28.879-27.482 4.658-3.726 10.247 0 17.234-1.397 2.329-8.384 11.645-15.837 20.495-13.508 3.726 0.932 11.179-8.85 13.508-9.782 3.726-1.397 1.863 3.726 1.863 6.987 8.85-6.987 20.961-10.713 32.14-14.906" fill="#31c48d" fill-rule="nonzero" stroke="none" stroke-width="1" stroke-linecap="butt" stroke-linejoin="miter" stroke-miterlimit="10" stroke-dasharray="" stroke-dashoffset="0" font-family="none" font-weight="none" font-size="none" text-anchor="none" style="mix-blend-mode: normal" data-fill-palette-color="tertiary"></path></g><g transform="matrix(1,0,0,1,64,167.43635711724633)"><svg viewBox="0 0 192 25.127285765507352" height="25.127285765507352" width="192"><g><svg viewBox="0 0 192 25.127285765507352" height="25.127285765507352" width="192"><g><svg viewBox="0 0 192 25.127285765507352" height="25.127285765507352" width="192"><g><svg viewBox="0 0 192 25.127285765507352" height="25.127285765507352" width="192"><g id="textblocktransform"><svg viewBox="0 0 192 25.127285765507352" height="25.127285765507352" width="192" id="textblock"><g><svg viewBox="0 0 192 25.127285765507352" height="25.127285765507352" width="192"><g transform="matrix(1,0,0,1,0,0)"><svg width="192" viewBox="4.599999904632568 -36 278.8800048828125 36.5" height="25.127285765507352" data-palette-color="#31c48d"><path d="M19.8-34.3Q22.25-34.3 24.3-33.18 26.35-32.05 27.58-30.13 28.8-28.2 28.8-25.9L28.8-25.9Q28.8-22.85 27.3-20.8 25.8-18.75 22.8-17.9L22.8-17.9 22.8-17.65Q25.75-17.2 27.68-15 29.6-12.8 29.6-9.35L29.6-9.35Q29.6-6.6 28.28-4.48 26.95-2.35 24.75-1.18 22.55 0 20.1 0L20.1 0 4.6 0 4.6-34.3 19.8-34.3ZM18.8-29.85L9.5-29.85 9.5-19.7 18.8-19.7Q20.8-19.7 22.35-21.15 23.9-22.6 23.9-24.75L23.9-24.75Q23.9-26.85 22.4-28.35 20.9-29.85 18.8-29.85L18.8-29.85ZM19.3-15.25L9.5-15.25 9.5-4.45 19.3-4.45Q21.55-4.45 23.13-6.03 24.7-7.6 24.7-9.85L24.7-9.85Q24.7-12.1 23.13-13.68 21.55-15.25 19.3-15.25L19.3-15.25ZM46.75-26.05Q51.8-26.05 54.27-24.05 56.75-22.05 56.75-18.25L56.75-18.25 56.75-5Q56.75-4.1 57.15-3.68 57.55-3.25 58.15-3.25L58.15-3.25Q59.3-3.25 60.45-3.95L60.45-3.95 60.45-0.5Q58.75 0.5 56.6 0.5L56.6 0.5Q54.45 0.5 53.4-0.73 52.35-1.95 52.25-4.1L52.25-4.1Q49.15 0.5 43.3 0.5L43.3 0.5Q39.1 0.5 37.02-1.33 34.95-3.15 34.95-7.1L34.95-7.1Q34.95-10.2 36.55-11.98 38.15-13.75 41.85-14.55 45.55-15.35 52.05-15.35L52.05-15.35 52.05-17.7Q52.05-20.25 50.55-21.28 49.05-22.3 46.2-22.3L46.2-22.3Q43.5-22.3 42-21.25 40.5-20.2 40.5-18.3L40.5-18.3 40.5-17.7 35.9-17.7Q35.8-18.4 35.8-19.35L35.8-19.35Q35.8-21.1 37.2-22.65 38.6-24.2 41-25.13 43.4-26.05 46.3-26.05L46.3-26.05 46.75-26.05ZM52.05-11.7Q46.8-11.7 44.12-11.18 41.45-10.65 40.55-9.6 39.65-8.55 39.65-6.7L39.65-6.7Q39.65-3.25 44.9-3.25L44.9-3.25Q46.75-3.25 48.4-4.17 50.05-5.1 51.05-6.8 52.05-8.5 52.05-10.7L52.05-10.7 52.05-11.7ZM81.25-25.55L86.4-25.55 77.45-13.25 86.85 0 81.25 0 74.6-9.35 67.85 0 62.7 0 72.1-12.95 63.2-25.55 68.8-25.55 74.95-16.85 81.25-25.55ZM101.94-26.05Q106.99-26.05 109.47-24.05 111.94-22.05 111.94-18.25L111.94-18.25 111.94-5Q111.94-4.1 112.34-3.68 112.74-3.25 113.34-3.25L113.34-3.25Q114.49-3.25 115.64-3.95L115.64-3.95 115.64-0.5Q113.94 0.5 111.79 0.5L111.79 0.5Q109.64 0.5 108.59-0.73 107.54-1.95 107.44-4.1L107.44-4.1Q104.34 0.5 98.49 0.5L98.49 0.5Q94.29 0.5 92.22-1.33 90.14-3.15 90.14-7.1L90.14-7.1Q90.14-10.2 91.74-11.98 93.34-13.75 97.04-14.55 100.74-15.35 107.24-15.35L107.24-15.35 107.24-17.7Q107.24-20.25 105.74-21.28 104.24-22.3 101.39-22.3L101.39-22.3Q98.69-22.3 97.19-21.25 95.69-20.2 95.69-18.3L95.69-18.3 95.69-17.7 91.09-17.7Q90.99-18.4 90.99-19.35L90.99-19.35Q90.99-21.1 92.39-22.65 93.79-24.2 96.19-25.13 98.59-26.05 101.49-26.05L101.49-26.05 101.94-26.05ZM107.24-11.7Q101.99-11.7 99.32-11.18 96.64-10.65 95.74-9.6 94.84-8.55 94.84-6.7L94.84-6.7Q94.84-3.25 100.09-3.25L100.09-3.25Q101.94-3.25 103.59-4.17 105.24-5.1 106.24-6.8 107.24-8.5 107.24-10.7L107.24-10.7 107.24-11.7ZM132.64-26.05Q136.19-26.05 138.19-23.78 140.19-21.5 140.19-18.05L140.19-18.05 140.04-16.15 135.89-16.15 135.89-17.25Q135.89-18.75 135.14-19.9 134.39-21.05 133.24-21.68 132.09-22.3 130.94-22.3L130.94-22.3Q128.54-22.3 127.19-20.4 125.84-18.5 125.84-15.25L125.84-15.25 125.84 0 121.14 0 121.14-25.55 124.49-25.55 125.19-21.75Q125.49-22.75 126.54-23.75 127.59-24.75 129.17-25.4 130.74-26.05 132.64-26.05L132.64-26.05ZM158.69-34.8Q162.69-34.8 165.69-33.15 168.69-31.5 170.31-28.43 171.94-25.35 171.94-21.15L171.94-21.15 167.04-21.15Q167.04-25.5 164.89-27.93 162.74-30.35 158.69-30.35L158.69-30.35Q154.19-30.35 151.84-27.58 149.49-24.8 149.49-19.4L149.49-19.4 149.49-14.9Q149.49-9.55 151.79-6.75 154.09-3.95 158.59-3.95L158.59-3.95Q162.79-3.95 165.01-6.35 167.24-8.75 167.24-13.05L167.24-13.05 171.94-13.05Q171.94-8.9 170.31-5.85 168.69-2.8 165.69-1.15 162.69 0.5 158.69 0.5L158.69 0.5Q152.04 0.5 148.31-3.58 144.59-7.65 144.59-14.9L144.59-14.9 144.59-19.4Q144.59-26.6 148.31-30.7 152.04-34.8 158.69-34.8L158.69-34.8ZM188.99-26.05Q194.34-26.05 197.54-22.75 200.74-19.45 200.74-13.7L200.74-13.7 200.74-11.85Q200.74-6.1 197.59-2.8 194.44 0.5 188.99 0.5L188.99 0.5Q183.54 0.5 180.39-2.8 177.24-6.1 177.24-11.85L177.24-11.85 177.24-13.7Q177.24-19.45 180.44-22.75 183.64-26.05 188.99-26.05L188.99-26.05ZM188.99-22.3Q185.64-22.3 183.79-20 181.94-17.7 181.94-13.25L181.94-13.25 181.94-12.3Q181.94-7.95 183.76-5.6 185.59-3.25 188.99-3.25L188.99-3.25Q192.29-3.25 194.16-5.58 196.04-7.9 196.04-12.3L196.04-12.3 196.04-13.25Q196.04-17.6 194.21-19.95 192.39-22.3 188.99-22.3L188.99-22.3ZM228.33-36L228.33 0 224.83 0Q224.48-1.6 224.18-3.5L224.18-3.5Q221.33 0.5 216.28 0.5L216.28 0.5Q211.48 0.5 208.71-3.05 205.93-6.6 205.93-12.8L205.93-12.8 205.93-13.35Q205.93-19.2 208.66-22.63 211.38-26.05 216.28-26.05L216.28-26.05Q221.03-26.05 223.63-22.3L223.63-22.3 223.63-36 228.33-36ZM217.13-22.3Q213.78-22.3 212.21-19.98 210.63-17.65 210.63-12.75L210.63-12.75Q210.63-7.85 212.23-5.55 213.83-3.25 217.13-3.25L217.13-3.25Q223.68-3.25 223.68-12.75L223.68-12.75Q223.68-17.65 222.03-19.98 220.38-22.3 217.13-22.3L217.13-22.3ZM246.88-26.05Q250.03-26.05 252.46-24.73 254.88-23.4 256.23-20.95 257.58-18.5 257.58-15.25L257.58-15.25 257.58-11.7 239.73-11.7Q239.83-7.65 241.63-5.45 243.43-3.25 246.98-3.25L246.98-3.25Q250.13-3.25 251.63-5.1 253.13-6.95 253.13-9.5L253.13-9.5 257.58-9.5Q257.58-6.5 256.21-4.25 254.83-2 252.41-0.75 249.98 0.5 246.88 0.5L246.88 0.5 246.68 0.5Q241.28 0.5 238.16-2.98 235.03-6.45 235.03-12.25L235.03-12.25 235.03-13.25Q235.03-17.05 236.43-19.95 237.83-22.85 240.43-24.45 243.03-26.05 246.53-26.05L246.53-26.05 246.88-26.05ZM246.63-22.3Q243.78-22.3 242.01-20.55 240.23-18.8 239.83-15.35L239.83-15.35 252.93-15.35 252.93-15.95Q252.93-18.8 251.21-20.55 249.48-22.3 246.63-22.3L246.63-22.3ZM275.93-26.05Q279.48-26.05 281.48-23.78 283.48-21.5 283.48-18.05L283.48-18.05 283.33-16.15 279.18-16.15 279.18-17.25Q279.18-18.75 278.43-19.9 277.68-21.05 276.53-21.68 275.38-22.3 274.23-22.3L274.23-22.3Q271.83-22.3 270.48-20.4 269.13-18.5 269.13-15.25L269.13-15.25 269.13 0 264.43 0 264.43-25.55 267.78-25.55 268.48-21.75Q268.78-22.75 269.83-23.75 270.88-24.75 272.45-25.4 274.03-26.05 275.93-26.05L275.93-26.05Z" opacity="1" transform="matrix(1,0,0,1,0,0)" fill="#31c48d" class="wordmark-text-0" data-fill-palette-color="primary" id="text-0"></path></svg></g></svg></g></svg></g></svg></g><g></g></svg></g></svg></g></svg></g></svg></g><defs></defs></svg><rect width="320" height="360" fill="none" stroke="none" visibility="hidden"></rect></g></svg></g></svg>